# xmcd CD database file
#
# Track frame offsets:
#	150
#	27905
#	70177
#	106332
#	137730
#	173382
#	217692
#
# Disc length: 3548 seconds
#
# Revision: 1
# Processed by: cddbd v1.4PL0 Copyright (c) Steve Scherf et al.
# Submitted via: CDex 1.51
#
DISCID=520dda07
DTITLE=Thelonious Monk - 5 By Monk By 5
DYEAR=1959
DGENRE=Jazz
TTITLE0=Jackie - ing
TTITLE1=Straight, No Chaser
TTITLE2=Played Twice - take 3
TTITLE3=Played Twice - take 1
TTITLE4=Played Twice - take 2
TTITLE5=I Mean You
TTITLE6=Ask Me Now
EXTD=YEAR: 1959
EXTT0=
EXTT1=
EXTT2=
EXTT3=
EXTT4=
EXTT5=
EXTT6=
PLAYORDER=
